<?xml version="1.0" encoding="utf-8"?>
<!-- Generator: Adobe Illustrator 24.1.2, SVG Export Plug-In . SVG Version: 6.00 Build 0)  -->
<svg version="1.1" id="Слой_1" xmlns="http://www.w3.org/2000/svg" xmlns:xlink="http://www.w3.org/1999/xlink" x="0px" y="0px"
	 viewBox="0 0 544 478" style="enable-background:new 0 0 544 478;" xml:space="preserve" fill="#F05F0D">
<style type="text/css">
	.st0{stroke:#000000;stroke-miterlimit:10;}
</style>
<g>
	<path d="M-2003,413.8c0-112.8,0-132,0-244.8c372,0,744,0,1116,0c0,112.8,0,132,0,244.8C-1259,413.8-1631,413.8-2003,413.8z
		 M-1877.76,293.36c6.99-20.66,13.45-38.01,18.72-55.71c8.8-29.53-14.06-57.11-44.39-53.36c-18.4,2.27-36.56,6.38-54.9,9.27
		c-15.8,2.49-28.76,8.49-33.84,25.09c-1.91,6.23-3.19,12.65-4.75,18.98c7.42,0.32,15.39,2.59,22.14,0.62
		c22.98-6.68,45.37-15.36,68.29-22.29c15.66-4.73,20.83,0.54,15.87,15.98c-3.82,11.92-9.91,23.08-14.3,34.84
		c-6.76,18.08-12.21,35.44-38.32,33.63c-5.6-0.39-16.25,15.31-17.63,24.62c-1.8,12.18,10.92,8.54,18.74,8.8
		c2.23,0.08,4.45,0.43,8.64,0.85c-3.94,8.79-7.11,16.41-10.74,23.8c-4.76,9.69-3.21,16.15,6.83,22.1
		c20.39,12.08,20.67,12.42,29.48-10.42c1.94-5.03,3.94-10.04,5.83-15.09c11.21-30.01,16.7-33.2,51.6-28.77
		c-4.41,12.01-8.86,23.66-12.95,35.43c-6.66,19.12,11.07,20.05,20.63,25.26c11.51,6.29,13.78-4.43,16.04-12.6
		c3.84-13.86,6.94-27.95,11.53-41.55c1.64-4.85,6.3-8.97,10.27-12.7c7.79-7.32,16.06-14.12,27.54-24.1
		c-12.8-3.23-18.72-4.72-27.23-6.87c13.09-33.7,25.58-65.88,38.26-98.54c-24.1,7.43-39.82,23.52-49.17,46.23
		c-6.16,14.95-11.22,30.37-17.83,45.11c-2.06,4.59-7.18,10.12-11.63,10.87C-1854.8,294.5-1865.02,293.36-1877.76,293.36z
		 M-1095.81,297.25c1.75,0.98,3.5,1.96,5.25,2.94c-1.48,5.85-2.04,12.16-4.66,17.45c-4.76,9.62-12.25,18.1-15.81,28.06
		c-3.53,9.87-8.56,25.58-4.03,30.42c6.4,6.85,20.96,7.93,32.03,7.93c7.62,0,15.61-5.39,22.67-9.64c2.9-1.74,3.79-6.82,5.6-10.38
		c-5.44-0.51-7.75,1.72-10.4,2.27c-5.3,1.09-10.79,1.25-16.2,1.8c1.1-5.5,1.13-11.53,3.55-16.36c3.17-6.33,8.23-11.71,12.48-17.5
		c5.67-7.71,13.09-14.73,16.5-23.34c3.17-8.01,5.76-20.25,1.83-25.98c-4.19-6.1-17.13-10.53-24.81-8.9
		c-12.3,2.61-23.71,10.31-34.92,16.85c-7.08,4.13-13.11,10.06-22.13,17.18c6.74-28.86-0.79-36.08-26.45-32.89
		c-3.33,10.24-5.4,19.93-9.54,28.65c-8.71,18.36-18.02,36.49-28.04,54.17c-6.39,11.29-3.75,17.74,7.85,21.92
		c4.8,1.73,9.42,3.95,12.83,5.39C-1149.18,353.47-1136.59,312.84-1095.81,297.25z M-1398.56,297.37c1.73,0.97,3.47,1.94,5.21,2.91
		c3.18,3.81,1.22,9.69-4.49,17.47c-6.82,9.3-11.45,17.17-14.89,26.54c-6.81,18.54-8.97,24.38-4.94,32.52
		c6.63,13.37,22.67,10.45,35.64,6.76c6.78-1.93,13.42-5.23,19.24-9.21c2.85-1.95,3.7-6.84,7.01-13.58c-5.9,2.34-7.48,3.25-9.18,3.59
		c-6.34,1.29-12.71,2.4-19.07,3.57c-0.27-7.08-0.27-9.04,5.77-19.28c7.58-12.86,19.11-23.4,25.95-36.5
		c4.12-7.89,6.67-21.57,2.54-27.44c-4.42-6.27-17.48-8.32-26.88-8.58c-7.03-0.2-14.84,4.42-21.22,8.57
		c-10.91,7.1-20.97,15.51-32.08,23.9c3.7-28.76-1.94-34.39-27.88-31.58c-3.55,10.76-5.85,20.97-10.2,30.21
		c-8.14,17.32-16.82,34.46-26.5,50.95c-7.32,12.47-5.16,19.89,8.41,24.41c4.33,1.44,8.48,3.44,11.75,4.79
		C-1452.15,353.42-1415.63,294.31-1398.56,297.37z M-1507.25,360.39c-6.2,2.49-6.97,2.97-10.05,3.91c-7.97,2.44-11.89,4.4-19.22,3.8
		c-0.49-5.28-0.49-7.24,5.68-19.12c6.88-13.26,19.12-23.42,25.99-36.52c4.16-7.93,7.07-22.42,2.83-27.4
		c-5.51-6.48-18.76-8.81-28.52-8.47c-8.17,0.28-16.57,6.26-24.05,11c-8.88,5.64-16.89,12.65-26.35,19.89
		c1.75-27.77-4.63-33.4-29.41-30.47c-3.31,10.31-5.32,20.07-9.49,28.8c-9.02,18.91-18.99,37.38-28.87,55.86
		c-4.53,8.47-3.83,14.73,5.63,18.8c5.45,2.34,10.79,4.95,15.95,7.33c9.8-16.33,18.18-33.04,29.17-47.81
		c10.24-13.75,22.85-25.87,35.37-37.7c2.96-2.8,9.92-6.02,14.72-2.24c4.98,6.01,1.2,10.71-0.81,14.79
		c-5.53,11.26-13.93,21.27-18.36,32.86c-3.48,9.1-7.22,24.1-2.76,28.79c6.25,6.57,20.18,8.54,30.5,7.83
		C-1527.21,383.47-1514.31,379.2-1507.25,360.39z M-1292.99,338.51c24.48,18.06,49.06,8.32,72.75-1.33
		c15.45-6.29,25.42-19.73,22.75-37.02c-2.65-17.18-18.27-21.58-32.75-22.58c-40.51-2.79-74.03,12.38-98.36,44.74
		c-17.88,23.78-7.74,52.65,20.58,61.74c30.69,9.86,59.01,0.91,86.13-13.2c7.92-4.12,7.92-10,8.09-15.6c-1.58-1-2.5-1.23-4.08-2.23
		c-4.86,3.03-10.04,6.42-15.33,8.09c-14.01,4.43-28.29,10.5-42.61,10.9C-1296.4,372.61-1302.42,359.45-1292.99,338.51z
		 M-1741.86,338.31c26.9,18.03,51.9,8.45,75.95-2.68c14.72-6.81,22.87-20.37,19.6-36.94c-3.05-15.48-17.24-19.75-30.39-20.86
		c-42.04-3.54-76.68,12.01-101.31,46.07c-17.17,23.74-5.25,52.45,23.51,60.8c29.62,8.61,57.04,0.46,83.01-13.14
		c4.5-2.36,5.82-10.78,8.65-16.47c-21.39,6.64-38.96,14.91-57.25,17.05C-1743.04,374.83-1750.82,361.39-1741.86,338.31z
		 M-899.5,266.27c-13.11-11.4-24.61-7.57-34.15-0.58c-29.94,21.93-59.17,44.86-88.55,67.54c-0.78,0.6-0.25,2.9-0.59,9.43
		c29.17-22.53,55.46-42.84,82.23-63.51c-2.64,25.19-3.54,47.83-8.05,69.71c-1.7,8.23-10.45,17.42-18.37,21.32
		c-9.25,4.55-22.55,7.08-19.83-12.98c-0.99-8.21-8.19-11.81-13.24-12.5c-5.75,0.7-12.95,7.9-12.57,15.63
		c0.43,8.5,10.35,17.24,17.73,19.26c12.28,3.36,26.29,3.33,39.07,1.39c45.69-6.92,62.91-41.9,41.41-82.01
		C-926.61,276.21-926.61,276.2-899.5,266.27z M-1007.35,248.14c12.67-4.74,37.18-20.75,30.93-35.98c-2.42-5.9-4.68-9.43-16.94-13.05
		c-9.15-2.7-17.3,1.34-18.41,6.74c-2.49,12.1,3.39,10.14,5.34,21.89C-1005.33,234.32-1004.47,237.53-1007.35,248.14z"/>
	<path d="M-1722.97,334.34c-5.92-0.87-11.22-3.84-12.79-8.73c-1.63-5.06,1-11.72,6.77-18.26c19.23-21.78,29.63-18.82,36.64-17.28
		c10.45,2.29,14.37,8.16,12.67,14.84C-1683.81,321.02-1701.03,334.67-1722.97,334.34z"/>
	<path d="M-1266.78,334.34c-5.92-0.87-11.22-3.84-12.79-8.73c-1.63-5.06,1-11.72,6.77-18.26c19.23-21.78,29.63-18.82,36.64-17.28
		c10.45,2.29,14.37,8.16,12.67,14.84C-1227.62,321.02-1244.84,334.67-1266.78,334.34z"/>
</g>
<circle class="st0" cx="244.5" cy="422.5" r="38"/>
<circle class="st0" cx="415.5" cy="422.5" r="38"/>
<path class="st0" d="M505.09,90H154.5c0,0-5-31.5-21-46.5s-40-16-40-16h-59c0,0-8,1-8,15s9,15,9,15l56,1c0,0,10.5-0.5,18,7
	s65,226,65,226s8,46,29,59s50,14,50,14h213c0,0,12,1,12-15s-12-16-12-16h-222c0,0-14-2-26-14S207,289,207,289h255.25
	c8.69,0,16.28-5.86,18.48-14.27l42.23-161.59C526.01,101.43,517.18,90,505.09,90z M452.5,258.5h-254l-37-137h325L452.5,258.5z"/>
</svg>
