<?xml version="1.0" encoding="utf-8"?>
<!-- Generator: Adobe Illustrator 24.1.2, SVG Export Plug-In . SVG Version: 6.00 Build 0)  -->
<svg version="1.1" id="Слой_1" xmlns="http://www.w3.org/2000/svg" xmlns:xlink="http://www.w3.org/1999/xlink" x="0px" y="0px"
	 viewBox="0 0 1116 244.8" style="enable-background:new 0 0 1116 244.8;" xml:space="preserve">
<style type="text/css">
	.st0{fill:#F05F0D;}
</style>
<g>
	<path class="st0" d="M516.6,213.7c4.3,1.4,8.5,3.4,11.8,4.8c22.4-34.1,59-93.2,76-90.1c1.7,1,3.5,1.9,5.2,2.9
		c3.2,3.8,1.2,9.7-4.5,17.5c-6.8,9.3-11.5,17.2-14.9,26.5c-6.8,18.5-9,24.4-4.9,32.5c6.6,13.4,22.7,10.5,35.6,6.8
		c6.8-1.9,13.4-5.2,19.2-9.2c2.8-2,3.7-6.8,7-13.6c-5.9,2.3-7.5,3.3-9.2,3.6c-6.3,1.3-12.7,2.4-19.1,3.6c-0.3-7.1-0.3-9,5.8-19.3
		c7.6-12.9,19.1-23.4,25.9-36.5c4.1-7.9,6.7-21.6,2.5-27.4c-4.4-6.3-17.5-8.3-26.9-8.6c-7-0.2-14.8,4.4-21.2,8.6
		c-10.9,7.1-21,15.5-32.1,23.9c3.7-28.8-1.9-34.4-27.9-31.6c-3.5,10.8-5.8,21-10.2,30.2c-8.1,17.3-16.8,34.5-26.5,51
		C500.9,201.8,503,209.2,516.6,213.7z"/>
	<path class="st0" d="M695,215c30.7,9.9,59,0.9,86.1-13.2c7.9-4.1,7.9-10,8.1-15.6c-1.6-1-2.5-1.2-4.1-2.2c-4.9,3-10,6.4-15.3,8.1
		c-14,4.4-28.3,10.5-42.6,10.9c-20.6,0.6-26.6-12.6-17.2-33.5c24.5,18.1,49.1,8.3,72.8-1.3c15.4-6.3,25.4-19.7,22.8-37
		c-2.7-17.2-18.3-21.6-32.8-22.6c-40.5-2.8-74,12.4-98.4,44.7C656.5,177.1,666.7,206,695,215z M730.2,138.3
		c19.2-21.8,29.6-18.8,36.6-17.3c10.4,2.3,14.4,8.2,12.7,14.8c-4.1,16.2-21.3,29.9-43.3,29.5c-5.9-0.9-11.2-3.8-12.8-8.7
		C721.8,151.5,724.4,144.9,730.2,138.3z"/>
	<path class="st0" d="M818.2,212.9c4.8,1.7,9.4,4,12.8,5.4c22.8-33.8,35.4-74.5,76.2-90.1c1.8,1,3.5,2,5.3,2.9
		c-1.5,5.8-2,12.2-4.7,17.5c-4.8,9.6-12.3,18.1-15.8,28.1c-3.5,9.9-8.6,25.6-4,30.4c6.4,6.8,21,7.9,32,7.9c7.6,0,15.6-5.4,22.7-9.6
		c2.9-1.7,3.8-6.8,5.6-10.4c-5.4-0.5-7.8,1.7-10.4,2.3c-5.3,1.1-10.8,1.3-16.2,1.8c1.1-5.5,1.1-11.5,3.6-16.4
		c3.2-6.3,8.2-11.7,12.5-17.5c5.7-7.7,13.1-14.7,16.5-23.3c3.2-8,5.8-20.3,1.8-26c-4.2-6.1-17.1-10.5-24.8-8.9
		c-12.3,2.6-23.7,10.3-34.9,16.8c-7.1,4.1-13.1,10.1-22.1,17.2c6.7-28.9-0.8-36.1-26.4-32.9c-3.3,10.2-5.4,19.9-9.5,28.7
		c-8.7,18.4-18,36.5-28,54.2C804,202.3,806.6,208.7,818.2,212.9z"/>
	<path class="st0" d="M1062.3,110.1c-2.6,25.2-3.5,47.8-8.1,69.7c-1.7,8.2-10.4,17.4-18.4,21.3c-9.3,4.5-22.6,7.1-19.8-13
		c-1-8.2-8.2-11.8-13.2-12.5c-5.8,0.7-12.9,7.9-12.6,15.6c0.4,8.5,10.3,17.2,17.7,19.3c12.3,3.4,26.3,3.3,39.1,1.4
		c45.7-6.9,62.9-41.9,41.4-82c-12-22.7-12-22.7,15.1-32.6c-13.1-11.4-24.6-7.6-34.2-0.6c-29.9,21.9-59.2,44.9-88.6,67.5
		c-0.8,0.6-0.3,2.9-0.6,9.4C1009.3,151.1,1035.6,130.8,1062.3,110.1z"/>
	<path class="st0" d="M995.6,79.1c12.7-4.7,37.2-20.7,30.9-36c-2.4-5.9-4.7-9.4-16.9-13c-9.2-2.7-17.3,1.3-18.4,6.7
		c-2.5,12.1,3.4,10.1,5.3,21.9C997.7,65.3,998.5,68.5,995.6,79.1z"/>
	<path class="st0" d="M28.1,69.2c23-6.7,45.4-15.4,68.3-22.3c15.7-4.7,20.8,0.5,15.9,16C108.5,74.8,102.4,86,98,97.7
		c-6.8,18.1-12.2,35.4-38.3,33.6c-5.6-0.4-16.3,15.3-17.6,24.6c-1.8,12.2,10.9,8.5,18.7,8.8c2.2,0.1,4.5,0.4,8.6,0.8
		c-3.9,8.8-7.1,16.4-10.7,23.8c-4.8,9.7-3.2,16.2,6.8,22.1C86,223.7,86.3,224,95.1,201.2c1.9-5,3.9-10,5.8-15.1
		c11.2-30,16.7-33.2,51.6-28.8c-4.4,12-8.9,23.7-13,35.4c-6.7,19.1,11.1,20,20.6,25.3c11.5,6.3,13.8-4.4,16-12.6
		c3.8-13.9,6.9-28,11.5-41.5c1.6-4.8,6.3-9,10.3-12.7c7.8-7.3,16.1-14.1,27.5-24.1c-12.8-3.2-18.7-4.7-27.2-6.9
		c13.1-33.7,25.6-65.9,38.3-98.5c-24.1,7.4-39.8,23.5-49.2,46.2c-6.2,15-11.2,30.4-17.8,45.1c-2.1,4.6-7.2,10.1-11.6,10.9
		c-9.7,1.6-19.9,0.5-32.7,0.5c7-20.7,13.5-38,18.7-55.7c8.8-29.5-14.1-57.1-44.4-53.4c-18.4,2.3-36.6,6.4-54.9,9.3
		C28.9,27,15.9,33,10.8,49.6c-1.9,6.2-3.2,12.6-4.8,19C13.4,68.9,21.4,71.2,28.1,69.2z"/>
	<path class="st0" d="M360,211.5c5.5,2.3,10.8,5,16,7.3c9.8-16.3,18.2-33,29.2-47.8c10.2-13.8,22.8-25.9,35.4-37.7
		c3-2.8,9.9-6,14.7-2.2c5,6,1.2,10.7-0.8,14.8c-5.5,11.3-13.9,21.3-18.4,32.9c-3.5,9.1-7.2,24.1-2.8,28.8c6.3,6.6,20.2,8.5,30.5,7.8
		c12-0.9,24.9-5.2,31.9-24c-6.2,2.5-7,3-10,3.9c-8,2.4-11.9,4.4-19.2,3.8c-0.5-5.3-0.5-7.2,5.7-19.1c6.9-13.3,19.1-23.4,26-36.5
		c4.2-7.9,7.1-22.4,2.8-27.4c-5.5-6.5-18.8-8.8-28.5-8.5c-8.2,0.3-16.6,6.3-24,11c-8.9,5.6-16.9,12.7-26.3,19.9
		c1.8-27.8-4.6-33.4-29.4-30.5c-3.3,10.3-5.3,20.1-9.5,28.8c-9,18.9-19,37.4-28.9,55.9C349.9,201.2,350.6,207.4,360,211.5z"/>
	<path class="st0" d="M248.5,215.7c29.6,8.6,57,0.5,83-13.1c4.5-2.4,5.8-10.8,8.7-16.5c-21.4,6.6-39,14.9-57.3,17
		c-22.9,2.7-30.7-10.7-21.8-33.8c26.9,18,51.9,8.5,76-2.7c14.7-6.8,22.9-20.4,19.6-36.9c-3-15.5-17.2-19.8-30.4-20.9
		c-42-3.5-76.7,12-101.3,46.1C207.8,178.6,219.7,207.4,248.5,215.7z M274,138.3c19.2-21.8,29.6-18.8,36.6-17.3
		c10.5,2.3,14.4,8.2,12.7,14.8c-4.1,16.2-21.3,29.9-43.3,29.5c-5.9-0.9-11.2-3.8-12.8-8.7C265.6,151.5,268.2,144.9,274,138.3z"/>
</g>
</svg>
